<svg width="16" height="16" viewBox="0 0 16 16" fill="none" xmlns="http://www.w3.org/2000/svg">
<path fill-rule="evenodd" clip-rule="evenodd" d="M11.2981 0.12598L13.9808 3.38733C14.1912 3.64321 13.9552 4.0214 13.6329 3.94477L12.2694 3.62057C12.1599 3.59454 12.056 3.67664 12.056 3.78919V10.1534C12.056 10.3443 11.9003 10.5 11.7093 10.5H10.3514C10.1605 10.5 10.0047 10.3443 10.0047 10.1534V3.78919C10.0047 3.67665 9.90083 3.59453 9.79134 3.62057L8.42784 3.94477C8.10553 4.0214 7.86949 3.6432 8.07996 3.38733L10.7627 0.12598C10.9013 -0.0425953 11.1594 -0.0425953 11.2981 0.12598Z" fill="white"/>
<path fill-rule="evenodd" clip-rule="evenodd" d="M11.254 13.415H1.39062C1.17548 13.415 1 13.2396 1 13.0244V11.7887C1 11.5736 1.17548 11.3981 1.39062 11.3981H11.254C11.4691 11.3981 11.6446 11.5736 11.6446 11.7887V13.0244C11.6446 13.2396 11.4691 13.415 11.254 13.415Z" fill="white"/>
<path fill-rule="evenodd" clip-rule="evenodd" d="M8.64632 9.94824H1.39062C1.17548 9.94824 1 9.77277 1 9.55762V8.32192C1 8.10676 1.17548 7.93128 1.39063 7.93129H8.64632C8.86147 7.93129 9.03695 8.10677 9.03695 8.32192V9.55762C9.03695 9.77277 8.86147 9.94824 8.64632 9.94824Z" fill="white"/>
<path fill-rule="evenodd" clip-rule="evenodd" d="M6.44916 6.48241L1.39062 6.48242C1.17548 6.48242 1 6.30694 1 6.0918V4.85611C1 4.64096 1.17548 4.46548 1.39062 4.46548H6.44917C6.66432 4.46549 6.83979 4.64096 6.83979 4.85611V6.0918C6.83979 6.30694 6.66431 6.48241 6.44916 6.48241Z" fill="white"/>
<path fill-rule="evenodd" clip-rule="evenodd" d="M4.38987 3.01562H1.39062C1.17548 3.01562 1 2.84015 1 2.625V1.38931C1 1.17416 1.17548 0.998686 1.39062 0.998686H4.38987C4.60502 0.998686 4.78049 1.17416 4.78049 1.38931V2.625C4.78049 2.84015 4.60502 3.01562 4.38987 3.01562Z" fill="white"/>
</svg>
