<svg width="16" height="16" viewBox="0 0 16 16" fill="none" xmlns="http://www.w3.org/2000/svg">
<path fill-rule="evenodd" clip-rule="evenodd" d="M12.2375 14.874L14.9202 11.6127C15.1307 11.3568 14.8946 10.9786 14.5723 11.0552L13.2088 11.3794C13.0993 11.4055 12.9954 11.3234 12.9954 11.2108V4.84663C12.9954 4.65571 12.8397 4.49999 12.6488 4.5H11.2908C11.0999 4.5 10.9442 4.65571 10.9442 4.84663V11.2108C10.9442 11.3234 10.8403 11.4055 10.7308 11.3794L9.36729 11.0552C9.04498 10.9786 8.80895 11.3568 9.01941 11.6127L11.7021 14.874C11.8408 15.0426 12.0988 15.0426 12.2375 14.874Z" fill="white"/>
<path fill-rule="evenodd" clip-rule="evenodd" d="M11.254 1H1.39062C1.17548 1 1 1.17548 1 1.39062V2.62632C1 2.84146 1.17548 3.01694 1.39062 3.01694H11.254C11.4691 3.01694 11.6446 2.84146 11.6446 2.62632V1.39062C11.6446 1.17548 11.4691 1 11.254 1Z" fill="white"/>
<path fill-rule="evenodd" clip-rule="evenodd" d="M8.64632 4.46582H1.39062C1.17548 4.46582 1 4.6413 1 4.85644V6.09215C1 6.3073 1.17548 6.48278 1.39063 6.48277H8.64632C8.86147 6.48277 9.03695 6.30729 9.03695 6.09215V4.85644C9.03695 4.6413 8.86147 4.46582 8.64632 4.46582Z" fill="white"/>
<path fill-rule="evenodd" clip-rule="evenodd" d="M6.44916 7.93165L1.39062 7.93164C1.17548 7.93164 1 8.10712 1 8.32226V9.55796C1 9.7731 1.17548 9.94858 1.39062 9.94858H6.44917C6.66432 9.94857 6.83979 9.7731 6.83979 9.55796V8.32226C6.83979 8.10712 6.66431 7.93165 6.44916 7.93165Z" fill="white"/>
<path fill-rule="evenodd" clip-rule="evenodd" d="M4.38987 11.3984H1.39062C1.17548 11.3984 1 11.5739 1 11.7891V13.0248C1 13.2399 1.17548 13.4154 1.39062 13.4154H4.38987C4.60502 13.4154 4.78049 13.2399 4.78049 13.0248V11.7891C4.78049 11.5739 4.60502 11.3984 4.38987 11.3984Z" fill="white"/>
</svg>
